<?xml version="1.0" encoding="UTF-8" standalone="no"?>
<!-- Created with Inkscape (http://www.inkscape.org/) -->

<svg
   xmlns:dc="http://purl.org/dc/elements/1.1/"
   xmlns:cc="http://creativecommons.org/ns#"
   xmlns:rdf="http://www.w3.org/1999/02/22-rdf-syntax-ns#"
   xmlns:svg="http://www.w3.org/2000/svg"
   xmlns="http://www.w3.org/2000/svg"
   xmlns:sodipodi="http://sodipodi.sourceforge.net/DTD/sodipodi-0.dtd"
   xmlns:inkscape="http://www.inkscape.org/namespaces/inkscape"
   width="288.3815mm"
   height="225.08086mm"
   viewBox="0 0 1021.8242 797.53059"
   id="svg2"
   version="1.1"
   inkscape:version="0.91 r13725"
   sodipodi:docname="network.svg">
  <defs
     id="defs4" />
  <sodipodi:namedview
     id="base"
     pagecolor="#ffffff"
     bordercolor="#666666"
     borderopacity="1.0"
     inkscape:pageopacity="0.0"
     inkscape:pageshadow="2"
     inkscape:zoom="0.7390248"
     inkscape:cx="556.08925"
     inkscape:cy="309.76256"
     inkscape:document-units="px"
     inkscape:current-layer="layer1"
     showgrid="false"
     inkscape:window-width="1918"
     inkscape:window-height="1054"
     inkscape:window-x="0"
     inkscape:window-y="24"
     inkscape:window-maximized="0"
     fit-margin-top="0"
     fit-margin-left="0"
     fit-margin-right="0"
     fit-margin-bottom="0" />
  <metadata
     id="metadata7">
    <rdf:RDF>
      <cc:Work
         rdf:about="">
        <dc:format>image/svg+xml</dc:format>
        <dc:type
           rdf:resource="http://purl.org/dc/dcmitype/StillImage" />
        <dc:title></dc:title>
      </cc:Work>
    </rdf:RDF>
  </metadata>
  <g
     inkscape:label="Layer 1"
     inkscape:groupmode="layer"
     id="layer1"
     transform="translate(-28.054595,-166.3786)">
    <path
       style="fill:#000000;fill-opacity:1;fill-rule:nonzero;stroke:none;stroke-width:1px;stroke-linecap:butt;stroke-linejoin:miter;stroke-opacity:1"
       id="path3522"
       d="m 55.010381,472.77338 c -1.188686,9.52561 -2.274626,19.05634 -3.018807,28.62766 -0.541817,8.88116 -1.599717,17.70765 -2.605127,26.54334 -0.516877,5.44186 -1.252215,10.85823 -1.662393,16.31012 -0.115698,2.79508 -0.46354,5.57948 -1.151036,8.29153 -0.798468,2.25527 -1.394542,4.54037 -1.710156,6.91104 -0.266273,2.3895 -0.260823,4.79711 -0.28293,7.19796 -0.0016,2.35788 0.01245,4.71561 0.0022,7.07349 -0.05521,3.09465 0.07631,6.19245 -0.101663,9.28312 -0.3113,2.96796 -0.579735,5.93777 -0.726677,8.9186 -0.05642,1.53669 -0.03567,0.80016 -0.06525,2.2095 0,0 -12.682631,6.41476 -12.682631,6.41476 l 0,0 c 0.05499,-1.43848 0.02607,-0.68737 0.08689,-2.25331 0.154367,-2.99519 0.398413,-5.98351 0.7425,-8.96317 0.276499,-3.048 0.08797,-6.11499 0.118229,-9.17251 -0.01743,-2.35796 -0.02012,-4.71591 -0.01844,-7.07394 -0.0031,-2.44988 0.02943,-4.90189 0.210121,-7.34611 0.264655,-2.4238 0.674855,-4.81504 1.608754,-7.08462 0.747699,-2.65005 1.268559,-5.36081 1.386776,-8.12139 0.469611,-5.50211 1.257662,-10.96318 1.835024,-16.45367 1.076888,-8.85148 2.281935,-17.68461 2.822731,-26.5927 0.76066,-9.47431 1.895474,-18.91326 2.556873,-28.39357 0,0 12.65498,-6.32613 12.65498,-6.32613 z"
       inkscape:connector-curvature="0" />
    <path
       style="fill:#000000;fill-opacity:1;fill-rule:nonzero;stroke:none;stroke-width:1px;stroke-linecap:butt;stroke-linejoin:miter;stroke-opacity:1"
       id="path3524"
       d="m 100.0777,481.21805 c -0.275856,8.3758 -1.51845,16.64871 -2.815918,24.91347 -2.061159,12.77432 -4.329258,25.51509 -6.781841,38.21995 -2.124116,10.20082 -4.05109,20.43048 -5.154081,30.79538 -0.500578,4.88899 -0.613485,9.80156 -0.627449,14.71183 0.11781,2.49528 -0.294871,4.96402 -0.57109,7.43428 0,0 -12.752028,6.30544 -12.752028,6.30544 l 0,0 c 0.316321,-2.43744 0.781347,-4.87619 0.742479,-7.34036 0.05371,-5.0018 0.278392,-10.00447 0.830138,-14.97829 1.241869,-10.44778 3.233597,-20.7654 5.429997,-31.05205 2.480304,-12.65523 4.740607,-25.35244 6.668745,-38.10449 1.213567,-8.11527 2.486643,-16.24263 2.410529,-24.47468 0,0 12.620519,-6.43048 12.620519,-6.43048 z"
       inkscape:connector-curvature="0" />
    <path
       style="fill:#000000;fill-opacity:1;fill-rule:nonzero;stroke:none;stroke-width:1px;stroke-linecap:butt;stroke-linejoin:miter;stroke-opacity:1"
       id="path3526"
       d="m 39.526451,543.95561 c 7.572908,0.1358 15.147732,0.13373 22.721644,0.13705 7.086158,-0.004 14.172469,-0.0211 21.258249,-0.0989 0,0 -11.36682,8.25848 -11.36682,8.25848 l 0,0 c -6.99502,-0.0792 -13.990609,-0.0947 -20.986021,-0.0989 -7.69968,0.003 -15.400183,0.004 -23.098908,0.13705 0,0 11.471856,-8.33479 11.471856,-8.33479 z"
       inkscape:connector-curvature="0" />
    <path
       style="fill:#000000;fill-opacity:1;fill-rule:nonzero;stroke:none;stroke-width:1px;stroke-linecap:butt;stroke-linejoin:miter;stroke-opacity:1"
       id="path3528"
       d="m 138.07795,546.82604 c 6.944,0.40067 13.86351,1.03789 20.78944,1.67368 8.21909,0.72455 16.32929,2.2652 24.50716,3.31442 2.22171,0.16606 4.41331,0.56192 6.60218,0.95717 0,0 -11.57194,8.08545 -11.57194,8.08545 l 0,0 c -2.12235,-0.40985 -4.25241,-0.77544 -6.402,-1.01596 -8.09282,-1.19134 -16.14156,-2.72847 -24.30589,-3.37538 -7.01896,-0.60193 -14.04225,-1.20752 -21.09081,-1.30459 0,0 11.47186,-8.33479 11.47186,-8.33479 z"
       inkscape:connector-curvature="0" />
    <path
       style="fill:#000000;fill-opacity:1;fill-rule:nonzero;stroke:none;stroke-width:1px;stroke-linecap:butt;stroke-linejoin:miter;stroke-opacity:1"
       id="path3530"
       d="m 258.99994,480.08626 c 0.90525,11.79691 0.63179,23.63646 0.0468,35.43938 -1.35661,18.65668 -4.36844,37.14419 -7.091,55.6377 -1.50804,10.13534 -2.57303,20.32787 -3.27924,30.54836 0,0 -12.36386,6.16612 -12.36386,6.16612 l 0,0 c 1.06699,-10.33385 2.26792,-20.65533 3.84802,-30.92514 2.84058,-18.42575 5.85399,-36.86838 7.09847,-55.48675 0.45533,-11.59719 0.76284,-23.29838 -0.83411,-34.82813 0,0 12.57496,-6.55154 12.57496,-6.55154 z"
       inkscape:connector-curvature="0" />
    <path
       style="fill:#000000;fill-opacity:1;fill-rule:nonzero;stroke:none;stroke-width:1px;stroke-linecap:butt;stroke-linejoin:miter;stroke-opacity:1"
       id="path3532"
       d="m 294.48598,487.6853 c 1.11541,10.4222 0.69,20.932 0.0821,31.37018 -1.27503,16.51916 -3.7408,32.9256 -5.93006,49.34417 -1.0293,8.26648 -2.60064,16.44394 -4.32176,24.58904 0,0 -12.54757,6.03917 -12.54757,6.03917 l 0,0 c 2.03952,-8.17198 3.78458,-16.41442 4.95174,-24.76142 2.35737,-16.35559 4.69623,-32.74836 5.95278,-49.22872 0.47828,-10.21081 0.86349,-20.54892 -0.70139,-30.68999 0,0 12.51416,-6.66243 12.51416,-6.66243 z"
       inkscape:connector-curvature="0" />
    <path
       style="fill:#000000;fill-opacity:1;fill-rule:nonzero;stroke:none;stroke-width:1px;stroke-linecap:butt;stroke-linejoin:miter;stroke-opacity:1"
       id="path3534"
       d="m 249.1761,553.52831 c 6.77902,0.0226 13.55837,-0.38156 20.33362,-0.62885 4.00972,-0.12848 2.09286,-0.0663 5.75061,-0.18619 0,0 -11.30459,8.25735 -11.30459,8.25735 l 0,0 c -3.58204,0.0645 -1.6995,0.0241 -5.64752,0.12538 -6.86561,0.21502 -13.72473,0.595 -20.59132,0.7579 0,0 11.4592,-8.32559 11.4592,-8.32559 z"
       inkscape:connector-curvature="0" />
    <path
       style="fill:#000000;fill-opacity:1;fill-rule:nonzero;stroke:none;stroke-width:1px;stroke-linecap:butt;stroke-linejoin:miter;stroke-opacity:1"
       id="path3536"
       d="m 320.51007,574.97114 c -0.61954,0.28206 -1.24877,0.54375 -1.85863,0.84617 -0.76412,0.37891 -3.00528,1.61439 -2.26151,1.19695 3.15436,-1.77037 6.20573,-3.74838 9.49376,-5.25603 1.02212,-0.46867 -1.79954,1.35404 -2.63213,2.10979 -2.49554,2.2652 -2.7091,2.83185 -4.74577,5.55925 -2.64956,4.63612 -5.25611,9.95282 -4.65328,15.47571 0.0835,0.76447 0.33311,1.50151 0.49966,2.25226 0.32756,0.57682 0.55465,1.2237 0.98267,1.73047 2.72666,3.22835 6.81719,1.33665 9.78548,-0.18933 -3.15278,1.68495 -6.11661,3.78525 -9.45834,5.05487 -1.04431,0.39677 1.6636,-1.50317 2.37568,-2.36396 2.8834,-3.48562 4.33519,-7.73739 5.54418,-12.01334 1.86814,-8.6363 -1.1936,-6.6041 13.62223,-11.18243 0.61898,-0.19127 -0.15941,1.28677 -0.19788,1.93348 -0.0626,1.05262 -0.0702,2.1078 -0.10527,3.16169 -0.10904,11.67831 0.14717,23.34739 -0.29047,35.02035 -0.73115,9.66684 -1.17309,19.7865 -4.72379,28.94319 -0.50576,1.30427 -1.1762,2.53855 -1.7643,3.80782 -0.71875,1.05547 -1.36853,2.16138 -2.15626,3.16642 -1.13915,1.45339 -3.16881,3.55568 -4.79448,4.53812 -9.46963,5.7227 -11.48212,7.82544 -19.66562,9.7497 -0.6835,0.12063 -1.36701,0.24126 -2.05052,0.36189 0,0 11.22871,-8.48461 11.22871,-8.48461 l 0,0 c 0.64955,-0.13254 1.2991,-0.26508 1.94865,-0.39762 5.44908,-1.52877 11.86131,-5.28911 -4.39823,3.91174 -0.91234,0.51627 1.78108,-1.11774 2.58728,-1.78777 2.2657,-1.88301 2.92932,-3.01806 4.74863,-5.36606 0.63343,-1.22703 1.35237,-2.41358 1.90029,-3.68111 3.87701,-8.9688 4.44042,-19.0939 5.11809,-28.69183 0.4156,-11.59112 0.29828,-23.18357 -0.0938,-34.77537 -0.0267,-1.05014 -0.0671,-2.10003 -0.0801,-3.15044 -0.008,-0.62635 -0.49876,-1.52498 0.0179,-1.87912 14.85673,-10.18308 13.50645,-10.05192 11.72981,-1.18922 -1.1796,4.42069 -2.60119,8.88152 -5.31056,12.64679 -4.09636,5.69282 -10.43757,7.55657 -16.68485,11.35542 -0.86201,0.33763 -1.69218,0.77194 -2.58605,1.01289 -3.03211,0.81733 -6.44631,0.0724 -8.42786,-2.50525 -0.4849,-0.63076 -0.76304,-1.39631 -1.14456,-2.09447 -0.19734,-0.8404 -0.48269,-1.66489 -0.59202,-2.5212 -0.73906,-5.78891 1.78853,-11.36197 4.39972,-16.34338 1.94234,-2.86649 2.12949,-3.44828 4.55512,-5.86161 5.90983,-5.87989 13.79844,-9.37952 21.28771,-12.8682 0,0 -11.14931,8.76738 -11.14931,8.76738 z"
       inkscape:connector-curvature="0" />
    <path
       style="fill:#000000;fill-opacity:1;fill-rule:nonzero;stroke:none;stroke-width:1px;stroke-linecap:butt;stroke-linejoin:miter;stroke-opacity:1"
       id="path3538"
       d="m 396.20058,537.24873 c 7.06322,0.14128 14.12876,0.12942 21.19313,0.13249 7.36544,-0.20566 14.68914,0.40061 21.97189,1.42945 2.34353,0.45464 4.72404,0.53556 7.1011,0.60151 0,0 -11.43845,8.22483 -11.43845,8.22483 l 0,0 c -2.35971,-0.1675 -4.71759,-0.37134 -7.04798,-0.79881 -7.19705,-1.04033 -14.44237,-1.50765 -21.71905,-1.36876 -7.18595,0.003 -14.37295,-0.006 -21.55782,0.13248 0,0 11.49718,-8.35319 11.49718,-8.35319 z"
       inkscape:connector-curvature="0" />
    <path
       style="fill:#000000;fill-opacity:1;fill-rule:nonzero;stroke:none;stroke-width:1px;stroke-linecap:butt;stroke-linejoin:miter;stroke-opacity:1"
       id="path3540"
       d="m 503.76356,478.40034 c -1.02991,10.59742 -1.63785,21.22898 -2.34515,31.85106 -1.37955,16.38676 -2.06945,32.81578 -2.45623,49.25226 -0.18774,9.37628 0.40075,18.74318 1.19993,28.07955 0,0 -12.30414,6.37472 -12.30414,6.37472 l 0,0 c -0.47971,-9.485 -0.92607,-18.98062 -0.68916,-28.48099 0.40494,-16.4294 1.06866,-32.84851 2.31526,-49.2386 0.61835,-10.49953 1.18296,-21.0042 1.60652,-31.51296 0,0 12.67297,-6.32504 12.67297,-6.32504 z"
       inkscape:connector-curvature="0" />
    <path
       style="fill:#000000;fill-opacity:1;fill-rule:nonzero;stroke:none;stroke-width:1px;stroke-linecap:butt;stroke-linejoin:miter;stroke-opacity:1"
       id="path3542"
       d="m 453.30112,493.26304 c 11.18413,-0.53364 22.23478,-2.43374 33.26899,-4.22101 9.70255,-1.48405 19.34725,-3.38127 29.09226,-4.58568 4.97809,-0.61526 7.66684,-0.77321 12.58165,-1.15707 4.67261,0.17306 10.95058,-1.11391 15.42708,0.69341 1.49673,0.60428 1.97101,1.24517 3.04316,2.29384 0,0 -12.04913,7.41256 -12.04913,7.41256 l 0,0 c -0.9216,-0.87598 -1.19139,-1.29205 -2.51152,-1.7521 -4.48543,-1.56311 -10.18971,-0.4217 -14.80497,-0.60398 -5.1054,0.38202 -7.19482,0.47913 -12.39496,1.12682 -9.72887,1.21176 -19.36118,3.09932 -29.04802,4.58733 -11.28939,1.85898 -22.58988,3.80314 -34.02574,4.50388 0,0 11.4212,-8.298 11.4212,-8.298 z"
       inkscape:connector-curvature="0" />
    <path
       style="fill:#000000;fill-opacity:1;fill-rule:nonzero;stroke:none;stroke-width:1px;stroke-linecap:butt;stroke-linejoin:miter;stroke-opacity:1"
       id="path3544"
       d="m 472.76884,591.45104 c 7.31019,-1.44214 14.62051,-2.88557 21.9799,-4.05352 10.55885,-1.4329 21.22981,-1.946 31.87863,-1.94747 3.56058,-0.18388 7.06737,0.32316 10.56488,0.88943 0,0 -11.44125,8.03146 -11.44125,8.03146 l 0,0 c -3.37329,-0.5616 -6.75842,-1.00252 -10.19288,-0.87794 -10.60956,0.007 -21.23981,0.5462 -31.74151,2.12218 -7.49154,1.27022 -14.94575,2.75134 -22.36288,4.40304 0,0 11.31511,-8.56718 11.31511,-8.56718 z"
       inkscape:connector-curvature="0" />
    <path
       style="fill:#000000;fill-opacity:1;fill-rule:nonzero;stroke:none;stroke-width:1px;stroke-linecap:butt;stroke-linejoin:miter;stroke-opacity:1"
       id="path3588"
       d="m 703.04466,325.72387 c 1.79797,9.53347 4.26351,18.91861 6.88586,28.25286 3.14841,11.2897 7.92891,21.98749 13.34895,32.3444 3.36306,5.64908 5.94638,11.78508 9.70139,17.19447 0.67121,0.6076 1.23245,1.45427 2.27954,1.36928 0.34179,-0.0278 1.23077,-0.6047 0.92921,-0.44145 -3.71621,2.01191 -7.32871,4.23609 -11.17433,5.98801 -0.5904,0.26897 0.90169,-0.94094 1.26919,-1.47559 0.47509,-0.69118 0.83144,-1.45686 1.24716,-2.18528 3.008,-7.18296 5.11061,-14.73372 7.33263,-22.19224 2.81978,-11.15552 6.23935,-22.14008 9.54748,-33.156 3.39813,-10.99221 6.92334,-21.95402 10.87334,-32.76208 2.02371,-5.56236 4.28698,-11.02547 6.9674,-16.30263 0,0 12.80132,-5.75251 12.80132,-5.75251 l 0,0 c -2.91025,5.22881 -5.31486,10.69783 -7.41363,16.30255 -4.04837,10.77866 -7.57747,21.74407 -11.01099,32.73153 -3.28736,10.97605 -6.71016,21.91561 -9.38246,33.06485 -2.12143,7.49086 -4.31202,14.98782 -6.94743,22.31351 -0.0812,0.17235 -1.71717,3.83114 -2.15144,4.11971 -0.93405,0.62068 -11.03905,10.90788 -15.99111,6.85016 -0.48372,-0.39636 -0.85591,-0.912 -1.28387,-1.36801 -3.64467,-5.55266 -6.18907,-11.75143 -9.46674,-17.5185 -5.33186,-10.50343 -10.0753,-21.31926 -13.33048,-32.66564 -2.65397,-9.29239 -5.07201,-18.64484 -7.54623,-27.98591 0,0 12.51524,-6.72549 12.51524,-6.72549 z"
       inkscape:connector-curvature="0" />
    <path
       style="fill:#000000;fill-opacity:1;fill-rule:nonzero;stroke:none;stroke-width:1px;stroke-linecap:butt;stroke-linejoin:miter;stroke-opacity:1"
       id="path3590"
       d="m 795.87614,364.49975 c -5.64812,4.18552 -10.6061,9.13431 -15.07964,14.53537 -2.85812,4.06177 -6.00993,8.74978 -5.60184,13.98597 0.0538,0.68982 0.28495,1.35417 0.42742,2.03125 0.71333,1.32436 0.64099,1.82961 2.14395,2.32025 1.35037,0.44082 2.68773,0.28778 4.02401,-0.11591 0.82286,-0.24858 3.11772,-1.43333 2.38089,-0.99065 -3.09994,1.86243 -6.32557,3.50718 -9.48835,5.26076 5.88225,-4.36771 9.6133,-10.74098 12.53525,-17.32323 2.72205,-7.52804 2.94441,-7.9461 15.2929,-9.74874 0.94234,-0.13756 0.23802,1.89092 0.2987,2.84131 0.0862,1.34968 0.0944,2.70321 0.14161,4.05481 0.0364,13.18233 -0.0805,26.39209 -1.20931,39.53094 -0.95511,10.34315 -2.71659,20.61579 -6.45887,30.34435 -0.55903,1.45327 -1.22619,2.8626 -1.83929,4.2939 -1.31949,2.96585 -3.02748,5.71678 -4.78261,8.43536 0,0 -12.83339,5.60459 -12.83339,5.60459 l 0,0 c 1.88891,-2.66842 3.72236,-5.37649 5.14703,-8.33225 0.65574,-1.41326 1.37262,-2.79972 1.96721,-4.23977 3.9646,-9.60199 5.82013,-19.84266 6.82723,-30.13718 0.21085,-2.354 0.48296,-4.70331 0.63254,-7.062 0.67693,-10.67408 0.51777,-21.42481 0.27825,-32.10722 -0.0866,-1.29787 -0.14393,-2.59802 -0.25993,-3.89359 -0.0737,-0.82297 -0.95393,-1.94309 -0.30889,-2.45946 3.73525,-2.99016 8.33581,-4.70498 12.40422,-7.22315 0.23315,-0.14431 -0.62508,-0.13849 -0.82082,0.0535 -0.66359,0.65094 -1.66387,3.78095 -1.83476,4.24809 -2.91158,6.72014 -6.56433,13.22847 -12.17083,18.08761 -1.87376,1.07719 -17.74611,14.17875 -23.45889,7.10129 -0.44729,-0.55415 -0.6548,-1.26485 -0.9822,-1.89727 -0.17786,-0.7792 -0.44737,-1.54301 -0.53358,-2.33759 -0.60051,-5.53481 2.3937,-10.54253 5.38432,-14.91255 4.32825,-5.4254 9.1358,-10.40738 14.61643,-14.68802 0,0 13.16124,-5.26078 13.16124,-5.26078 z"
       inkscape:connector-curvature="0" />
    <path
       style="fill:#000000;fill-opacity:1;fill-rule:nonzero;stroke:none;stroke-width:1px;stroke-linecap:butt;stroke-linejoin:miter;stroke-opacity:1"
       id="path3592"
       d="m 892.73838,173.48315 c 4.07312,0.24959 7.13135,2.80854 8.90144,6.40577 0.54164,1.10074 0.90357,2.28113 1.35536,3.4217 2.9715,9.97206 4.4632,20.31681 6.13023,30.56781 1.74521,10.44319 3.59277,20.871 5.72102,31.24336 1.21966,6.24173 2.40913,12.5387 4.78799,18.46153 0.23484,0.37401 0.36482,0.83983 0.70452,1.12203 0.14659,0.12177 0.37867,-0.0433 0.568,-0.065 -3.84768,1.90279 -7.46743,4.3613 -11.54305,5.70837 -0.87106,0.2879 1.01956,-1.53284 1.41473,-2.36077 0.92813,-1.94455 2.49733,-6.61422 3.13043,-8.41432 4.24063,-13.48691 9.14769,-26.74523 14.05029,-40.00112 4.25616,-12.32931 9.40296,-24.30817 15.3726,-35.89777 1.99243,-3.86345 4.07903,-7.67641 6.07281,-11.53912 0,0 12.80737,-5.75702 12.80737,-5.75702 l 0,0 c -2.12626,3.90149 -4.32223,7.7638 -6.40962,11.68637 -6.21682,11.52835 -11.52848,23.49366 -15.78377,35.89242 -4.88171,13.16242 -9.75512,26.34113 -13.73676,39.81041 -0.64281,1.99524 -2.0074,6.30779 -2.78179,8.45188 -0.32635,0.90358 -0.27296,2.12405 -1.05498,2.68209 -4.32162,3.08383 -10.98566,10.99073 -14.35923,6.8913 -0.32949,-0.40038 -0.50383,-0.90643 -0.75575,-1.35964 -2.24891,-6.08469 -3.40522,-12.48909 -4.55902,-18.85377 -2.0569,-10.41676 -3.91669,-20.8713 -5.6208,-31.35161 -1.68471,-10.11822 -3.17981,-20.34165 -6.25885,-30.1509 -2.0189,-4.85541 -3.65894,-8.37916 -9.55652,-8.11467 0,0 11.40335,-8.47938 11.40335,-8.47938 z"
       inkscape:connector-curvature="0" />
    <path
       style="fill:#000000;fill-opacity:1;fill-rule:nonzero;stroke:none;stroke-width:1px;stroke-linecap:butt;stroke-linejoin:miter;stroke-opacity:1"
       id="path3594"
       d="m 720.1781,801.44924 c 3.37281,-11.29348 6.78285,-22.57586 10.145,-33.87306 5.78867,-18.75256 13.59957,-36.78134 21.32754,-54.79222 5.44479,-12.7218 10.89925,-25.45765 17.62702,-37.56412 1.07222,-1.62941 2.02712,-3.31704 3.43614,-4.69268 0.44312,-0.43263 0.92847,-0.84732 1.48837,-1.11197 4.64267,-2.19444 9.11228,-4.95388 14.08182,-6.24757 0.907,-0.23611 1.35015,1.31819 1.87747,2.093 0.68085,1.00039 1.14804,2.13058 1.72205,3.19587 5.04338,13.27085 6.67233,27.57022 8.56552,41.55873 2.51346,17.97616 3.70705,36.06931 4.83478,54.17036 0.55982,8.72692 1.09546,17.45533 1.62646,26.18404 0,0 -12.39364,6.37541 -12.39364,6.37541 l 0,0 c -0.15077,-8.84038 -0.48452,-17.67648 -0.94388,-26.50618 -0.9828,-18.07922 -2.1702,-36.14909 -4.77658,-54.08287 -1.68667,-11.91752 -3.22099,-25.07441 -7.19075,-36.46932 -0.50941,-1.4622 -1.16724,-2.8684 -1.75086,-4.30259 -0.55243,-0.93544 -1.00012,-1.94124 -1.65728,-2.80632 -0.4012,-0.52815 -1.97648,-0.88429 -1.48261,-1.32701 3.14794,-2.82194 7.16578,-4.49296 10.64845,-6.88962 0.51735,-0.35602 -1.2181,0.38416 -1.72796,0.75082 -1.48549,1.06828 -2.76578,3.11681 -3.78164,4.50585 -7.16393,12.06603 -12.84352,24.89794 -18.42417,37.75554 -7.72375,17.90227 -15.47886,35.84616 -21.14477,54.53275 -3.22305,11.1096 -6.49841,22.21119 -9.33744,33.42625 0,0 -12.76904,6.11691 -12.76904,6.11691 z"
       inkscape:connector-curvature="0" />
    <path
       style="fill:#000000;fill-opacity:1;fill-rule:nonzero;stroke:none;stroke-width:1px;stroke-linecap:butt;stroke-linejoin:miter;stroke-opacity:1"
       id="path3596"
       d="m 747.39559,741.22797 c 7.46478,1.21762 14.97947,2.08091 22.45959,3.20219 5.96098,1.17535 3.08835,0.5778 8.62036,1.78079 0,0 -11.33817,7.86442 -11.33817,7.86442 l 0,0 c -5.41679,-1.23219 -2.59351,-0.63771 -8.47447,-1.76129 -7.59943,-1.10213 -15.22611,-1.99862 -22.85551,-2.86116 0,0 11.5882,-8.22495 11.5882,-8.22495 z"
       inkscape:connector-curvature="0" />
    <path
       style="fill:#000000;fill-opacity:1;fill-rule:nonzero;stroke:none;stroke-width:1px;stroke-linecap:butt;stroke-linejoin:miter;stroke-opacity:1"
       id="path3598"
       d="m 854.16745,768.20504 c -0.68393,0.28678 -1.38244,0.54104 -2.0518,0.86035 -0.85655,0.40861 -3.34621,1.79159 -2.52181,1.32147 3.00479,-1.71353 5.8846,-3.69015 9.06413,-5.05232 1.20695,-0.51708 -2.11226,1.57174 -3.06033,2.48017 -2.94857,2.82529 -3.34312,3.8414 -5.60806,7.25869 -3.12332,5.59637 -5.3381,11.90822 -4.17805,18.38802 0.15197,0.84889 0.44038,1.66761 0.66057,2.50141 0.79025,1.7136 2.01764,3.49677 4.22159,3.21925 0.70504,-0.0888 2.60896,-1.10895 1.99536,-0.75052 -12.03469,7.02982 -11.6872,7.15419 -6.65022,2.47788 5.80586,-6.6755 9.83607,-14.60145 13.40137,-22.63431 0.35103,-0.88308 0.72477,-1.75747 1.05307,-2.64925 0.57695,-1.56725 0.79496,-2.40853 1.25227,-3.92201 0.0749,-0.2479 -0.003,-0.62943 0.23033,-0.74198 13.74805,-6.63424 12.96202,-10.20906 12.95713,-3.04337 -0.72647,11.17903 -1.94179,22.31615 -3.00109,33.46614 -0.88233,11.06208 -3.41127,21.2941 -7.22929,31.66265 -1.28863,3.61107 -2.96519,7.03033 -5.03854,10.24661 0,0 -12.92002,5.62478 -12.92002,5.62478 l 0,0 c 2.30344,-3.09597 4.15518,-6.43857 5.4864,-10.07703 1.34386,-3.42794 2.08167,-5.13716 3.19285,-8.72271 2.29306,-7.39917 3.6567,-15.05551 4.48014,-22.74807 1.04224,-11.01006 2.17017,-22.02175 2.52886,-33.08143 -0.0204,-6.86948 -0.62446,-2.12985 12.5353,-9.183 0.21667,-0.11613 -0.35357,0.35652 -0.45482,0.58053 -0.99189,2.19445 -1.23416,4.70569 -2.45833,6.8155 -3.65512,8.11082 -7.7119,16.10395 -13.25584,23.11308 -6.00491,6.61727 -3.32549,4.26717 -17.28971,11.31297 -0.72528,0.36595 -1.62135,0.31931 -2.42738,0.21792 -2.54483,-0.32011 -3.94776,-2.39627 -4.90243,-4.51787 -0.23482,-0.90268 -0.53829,-1.79024 -0.70447,-2.70805 -1.22453,-6.76267 0.80884,-13.3899 3.97354,-19.32706 2.10956,-3.46277 2.58324,-4.65876 5.34579,-7.59234 6.04077,-6.41476 14.54651,-10.05923 22.5509,-13.47978 0,0 -11.17741,8.68368 -11.17741,8.68368 z"
       inkscape:connector-curvature="0" />
    <path
       style="fill:#000000;fill-opacity:1;fill-rule:nonzero;stroke:none;stroke-width:1px;stroke-linecap:butt;stroke-linejoin:miter;stroke-opacity:1"
       id="path3600"
       d="m 963.41108,963.90922 c 3.8988,-9.95566 6.97373,-20.18755 9.90119,-30.4618 4.7578,-18.75745 9.21223,-37.58822 13.96884,-56.34725 3.01489,-11.75141 6.128,-23.49396 10.61694,-34.78026 3.08075,-6.52011 5.81565,-7.32427 15.75845,-9.6938 0.9784,-0.23317 1.1954,1.63436 1.617,2.54755 1.3182,2.85525 2.0136,6.43576 2.7471,9.41755 3.1331,15.8205 7.8106,31.26572 12.1745,46.77439 3.8521,14.44983 8.8223,28.56102 13.9118,42.61118 1.8716,5.15552 3.7321,10.31275 5.7719,15.40442 0,0 -12.2099,6.78596 -12.2099,6.78596 l 0,0 c -1.8392,-5.20376 -3.5682,-10.44347 -5.3717,-15.6596 -4.8679,-14.18193 -9.9416,-28.31285 -13.622,-42.86577 -4.4137,-15.46581 -9.1184,-30.85722 -12.6178,-46.56682 -0.8084,-2.94792 -1.4589,-6.05179 -2.8575,-8.81299 -0.3205,-0.63287 -1.7964,-1.23031 -1.271,-1.70704 3.248,-2.94733 7.33,-4.81924 11.0403,-7.15794 1.1185,-0.70497 -5.7586,4.04265 -2.4565,3.11382 -4.9589,11.26071 -8.3611,23.09645 -11.49871,34.97522 -4.78557,18.7015 -9.27823,37.47003 -13.71231,56.25678 -2.75701,10.15583 -5.62314,20.27032 -9.06991,30.21625 0,0 -12.82069,5.95015 -12.82069,5.95015 z"
       inkscape:connector-curvature="0" />
    <path
       style="fill:#000000;fill-opacity:1;fill-rule:nonzero;stroke:none;stroke-width:1px;stroke-linecap:butt;stroke-linejoin:miter;stroke-opacity:1"
       id="path3602"
       d="m 985.17453,906.95934 c 10.17473,-2.75308 20.49977,-4.82646 30.92027,-6.37711 8.8879,-1.33712 4.5584,-0.67742 12.9887,-1.97667 0,0 -10.8078,8.1013 -10.8078,8.1013 l 0,0 c -8.3571,1.22333 -4.0489,0.58041 -12.9236,1.93344 -10.58609,1.67692 -21.08364,3.87416 -31.37217,6.90683 0,0 11.1946,-8.58779 11.1946,-8.58779 z"
       inkscape:connector-curvature="0" />
    <path
       style="fill:#000000;fill-opacity:1;fill-rule:nonzero;stroke:none;stroke-width:1px;stroke-linecap:butt;stroke-linejoin:miter;stroke-opacity:1"
       id="path3604"
       d="m 918.67011,813.91531 c 5.67756,5.97239 11.0594,12.21644 16.42604,18.46703 7.86194,9.45617 16.84339,17.87316 25.53172,26.547 6.52805,6.80761 13.19416,13.48735 19.5563,20.45199 2.49396,2.95093 1.32503,1.53674 3.51565,4.23524 0,0 -12.03887,7.18275 -12.03887,7.18275 l 0,0 c -2.06809,-2.71026 -0.95576,-1.29628 -3.35172,-4.23032 -6.19527,-7.05298 -12.73456,-13.78992 -19.22962,-20.56487 -8.67472,-8.7329 -17.64075,-17.20112 -25.59523,-26.61781 -5.41661,-6.16525 -10.8374,-12.38098 -16.87111,-17.95464 0,0 12.05684,-7.51637 12.05684,-7.51637 z"
       inkscape:connector-curvature="0" />
    <path
       style="fill:#000000;fill-opacity:1;fill-rule:nonzero;stroke:none;stroke-width:1px;stroke-linecap:butt;stroke-linejoin:miter;stroke-opacity:1"
       id="path3606"
       d="m 611.02804,617.64064 c 9.39173,5.41104 17.56985,12.64629 25.96518,19.43855 13.59213,10.87156 27.39288,21.47931 41.49434,31.68164 11.75038,8.69155 23.7227,17.06942 36.15439,24.75768 0,0 -11.41231,7.34132 -11.41231,7.34132 l 0,0 c -12.20299,-7.99301 -24.22256,-16.2572 -35.88027,-25.03253 -14.05374,-10.30983 -27.90082,-20.89139 -41.57927,-31.69469 -8.50628,-6.66091 -16.85022,-13.84522 -26.5563,-18.71862 0,0 11.81424,-7.77335 11.81424,-7.77335 z"
       inkscape:connector-curvature="0" />
    <path
       style="fill:#000000;fill-opacity:1;fill-rule:nonzero;stroke:none;stroke-width:1px;stroke-linecap:butt;stroke-linejoin:miter;stroke-opacity:1"
       id="path3608"
       d="m 598.85957,507.85404 c 0.60004,-0.32215 2.38945,-1.30782 1.80013,-0.96644 -3.0996,1.7955 -6.17307,3.63982 -9.33173,5.32927 -1.25017,0.66866 2.40566,-1.50106 3.60066,-2.26395 4.80466,-3.06731 9.3832,-6.35867 13.95408,-9.76328 12.28617,-9.66934 24.36802,-19.59019 36.24911,-29.75219 9.91271,-8.64156 19.80363,-17.2975 29.87221,-25.75683 4.81917,-4.01948 2.52165,-2.10618 6.89178,-5.74085 0,0 12.79242,-5.15462 12.79242,-5.15462 l 0,0 c -4.50965,3.67671 -2.15041,1.74377 -7.07489,5.80227 -2.98678,2.49417 -6.0223,4.92979 -8.99724,7.43806 -7.14923,6.02775 -13.96331,12.44378 -21.15871,18.4183 -11.83948,10.13466 -23.90095,20.00024 -36.04926,29.76198 -10.60681,8.07343 -21.68995,15.5407 -33.67602,21.46661 0,0 11.12746,-8.81833 11.12746,-8.81833 z"
       inkscape:connector-curvature="0" />
    <path
       style="fill:#000000;fill-opacity:1;fill-rule:nonzero;stroke:none;stroke-width:1px;stroke-linecap:butt;stroke-linejoin:miter;stroke-opacity:1"
       id="path3610"
       d="m 795.88126,339.57508 c 5.07037,-7.479 11.80871,-13.65296 18.27358,-19.89745 6.39259,-6.45319 13.44377,-12.19495 20.08474,-18.37925 3.74918,-3.49137 6.07246,-5.88939 9.67227,-9.50255 7.1395,-7.26785 13.5645,-15.1814 20.35468,-22.76544 2.77345,-3.00124 5.71405,-5.8396 8.66569,-8.6632 0,0 12.98331,-5.3305 12.98331,-5.3305 l 0,0 c -3.0456,2.81163 -6.06443,5.65506 -8.93106,8.65103 -6.94626,7.60102 -13.45374,15.59596 -20.65814,22.96194 -3.24083,3.26387 -6.33557,6.43636 -9.69117,9.58702 -6.58725,6.18491 -13.64879,11.8563 -19.99996,18.29603 -6.26513,6.06354 -12.87187,12.0333 -17.75734,19.31033 0,0 -12.9966,5.73204 -12.9966,5.73204 z"
       inkscape:connector-curvature="0" />
  </g>
</svg>
